<svg width="19" height="14" viewBox="0 0 19 14" fill="none" xmlns="http://www.w3.org/2000/svg">
<path fill-rule="evenodd" clip-rule="evenodd" d="M2.33931 3.74556C3.8292 2.25567 6.16714 0.75 9.5 0.75C12.8329 0.75 15.1708 2.25567 16.6607 3.74556C17.4038 4.4887 17.9397 5.23076 18.2906 5.78809C18.4664 6.06724 18.5966 6.30146 18.684 6.4683C18.7277 6.55176 18.7608 6.61849 18.7835 6.66569C18.7949 6.6893 18.8037 6.70804 18.8099 6.72157L18.8174 6.7379L18.8197 6.74306L18.8206 6.74487L18.8209 6.74558C18.821 6.74588 18.8211 6.74616 18.25 7C18.8211 7.25384 18.821 7.25412 18.8209 7.25442L18.8206 7.25513L18.8197 7.25694L18.8174 7.2621L18.8099 7.27843C18.8037 7.29196 18.7949 7.3107 18.7835 7.33431C18.7608 7.38151 18.7277 7.44824 18.684 7.5317C18.5966 7.69854 18.4664 7.93276 18.2906 8.21191C17.9397 8.76924 17.4038 9.5113 16.6607 10.2544C15.1708 11.7443 12.8329 13.25 9.5 13.25C6.16714 13.25 3.8292 11.7443 2.33931 10.2544C1.59617 9.5113 1.0603 8.76924 0.709386 8.21191C0.533624 7.93276 0.403373 7.69854 0.315984 7.5317C0.272267 7.44824 0.239205 7.38151 0.216476 7.33431C0.205109 7.3107 0.196319 7.29196 0.190066 7.27843L0.182582 7.2621L0.180256 7.25694L0.179445 7.25513L0.179127 7.25442C0.178993 7.25412 0.178868 7.25384 0.75 7C0.178868 6.74616 0.178993 6.74588 0.179127 6.74558L0.179445 6.74487L0.180256 6.74306L0.182582 6.7379L0.190066 6.72157C0.196319 6.70804 0.205109 6.6893 0.216476 6.66569C0.239205 6.61849 0.272267 6.55176 0.315984 6.4683C0.403373 6.30146 0.533624 6.06724 0.709386 5.78809C1.0603 5.23076 1.59617 4.4887 2.33931 3.74556ZM0.75 7L0.178868 6.74616C0.107044 6.90777 0.107044 7.09223 0.178868 7.25384L0.75 7ZM1.44882 7C1.52235 7.13773 1.62794 7.32476 1.76718 7.5459C2.08033 8.04326 2.56008 8.70745 3.22319 9.37056C4.5458 10.6932 6.58286 12 9.5 12C12.4171 12 14.4542 10.6932 15.7768 9.37056C16.4399 8.70745 16.9197 8.04326 17.2328 7.5459C17.3721 7.32476 17.4777 7.13773 17.5512 7C17.4777 6.86227 17.3721 6.67524 17.2328 6.4541C16.9197 5.95674 16.4399 5.29255 15.7768 4.62944C14.4542 3.30683 12.4171 2 9.5 2C6.58286 2 4.5458 3.30683 3.22319 4.62944C2.56008 5.29255 2.08033 5.95674 1.76718 6.4541C1.62794 6.67524 1.52235 6.86227 1.44882 7ZM18.25 7L18.8211 7.25384C18.893 7.09223 18.893 6.90777 18.8211 6.74616L18.25 7Z" fill="#A259FF"/>
</svg>
